<svg xmlns="http://www.w3.org/2000/svg" enable-background="new 0 0 24 24" viewBox="0 0 24 24"><path d="M11.5,17h-4C7.224,17,7,16.776,7,16.5V16H0.5C0.224,16,0,15.776,0,15.5v-8C0,7.224,0.224,7,0.5,7h23C23.776,7,24,7.224,24,7.5v8c0,0.276-0.224,0.5-0.5,0.5H12v0.5C12,16.776,11.776,17,11.5,17z M8,16h3v-0.5c0-0.276,0.224-0.5,0.5-0.5H23V8H1v7h6.5C7.776,15,8,15.224,8,15.5V16z" fill="#dbffff" class="color000000 svgShape"></path><path d="M7.5 16C7.224 16 7 15.776 7 15.5v-8C7 7.224 7.224 7 7.5 7S8 7.224 8 7.5v8C8 15.776 7.776 16 7.5 16zM14.5 16c-.276 0-.5-.224-.5-.5v-8C14 7.224 14.224 7 14.5 7S15 7.224 15 7.5v8C15 15.776 14.776 16 14.5 16zM17.5 16c-.276 0-.5-.224-.5-.5v-5c0-.276.224-.5.5-.5s.5.224.5.5v5C18 15.776 17.776 16 17.5 16zM4.5 16C4.224 16 4 15.776 4 15.5v-5C4 10.224 4.224 10 4.5 10S5 10.224 5 10.5v5C5 15.776 4.776 16 4.5 16zM20.5 16c-.276 0-.5-.224-.5-.5v-5c0-.276.224-.5.5-.5s.5.224.5.5v5C21 15.776 20.776 16 20.5 16zM11.5 13c-.276 0-.5-.224-.5-.5v-2c0-.276.224-.5.5-.5s.5.224.5.5v2C12 12.776 11.776 13 11.5 13z" fill="#dbffff" class="color000000 svgShape"></path></svg>